<svg width="39" height="38" viewBox="0 0 39 38" fill="none" xmlns="http://www.w3.org/2000/svg">
<path d="M8.51309 37.6256H0.634881V12.5059H8.51309V37.6256ZM4.56975 9.07933C2.05055 9.07933 0.00720215 7.01332 0.00720215 4.51898C0.00720217 3.32086 0.487897 2.17181 1.34354 1.32462C2.19918 0.477416 3.35968 0.00146484 4.56975 0.00146484C5.77981 0.00146484 6.94031 0.477416 7.79595 1.32462C8.6516 2.17181 9.13229 3.32086 9.13229 4.51898C9.13229 7.01332 7.08809 9.07933 4.56975 9.07933ZM37.9987 37.6256H30.1375V25.3975C30.1375 22.4832 30.0781 18.7459 26.0414 18.7459C21.9454 18.7459 21.3177 21.9121 21.3177 25.1875V37.6256H13.448V12.5059H21.0039V15.9325H21.1142C22.166 13.9588 24.7352 11.876 28.5683 11.876C36.5415 11.876 38.0072 17.0746 38.0072 23.827V37.6256H37.9987Z" fill="white"/>
</svg>
