<svg width="235" height="72" viewBox="0 0 235 72" fill="none" xmlns="http://www.w3.org/2000/svg">
<path d="M69 72H0V66.4615H69V72Z" fill="#3E2179"/>
<path d="M3.45 63.9053H65.55C65.55 63.9053 65.9812 61.3491 64.2562 59.645C62.5312 57.9408 59.5125 58.3669 59.5125 58.3669V24.7101H51.75V58.3669H45.7125V24.7101H37.0875V58.3669H31.4813V24.7101H23.2875V58.3669H17.6812V24.7101H9.4875V58.3669C9.4875 58.3669 6.0375 57.9408 4.3125 59.2189C2.5875 60.497 3.45 63.9053 3.45 63.9053Z" fill="#3E2179"/>
<path d="M0 15.7633V19.5976H3.88125L4.74375 21.3018L6.0375 22.5799H62.9625C62.9625 22.5799 63.825 22.5799 64.6875 21.3018C65.55 20.0237 65.55 19.5976 65.55 19.5976H69V15.7633L34.5 0L0 15.7633Z" fill="#3E2179"/>
<path d="M103.488 26.564H107.856C108.619 26.564 109 26.9107 109 27.604V51.524C109 54.228 108.237 56.3253 106.712 57.816C105.221 59.272 103.124 60 100.42 60H94.7C91.9613 60 89.8467 59.272 88.356 57.816C86.8653 56.36 86.12 54.2627 86.12 51.524V27.656C86.12 26.928 86.484 26.564 87.212 26.564H91.632C92.36 26.564 92.724 26.928 92.724 27.656V51.212C92.724 52.3213 92.9493 53.1187 93.4 53.604C93.8853 54.0547 94.6653 54.28 95.74 54.28H99.328C100.437 54.28 101.217 54.0547 101.668 53.604C102.153 53.1187 102.396 52.3213 102.396 51.212V27.656C102.396 26.928 102.76 26.564 103.488 26.564ZM120.99 60H116.57C115.842 60 115.478 59.636 115.478 58.908V34.572C115.478 33.844 115.842 33.48 116.57 33.48H120.99C121.718 33.48 122.082 33.844 122.082 34.572V36.288H122.29C123.052 34.416 124.751 33.48 127.386 33.48H129.05C134.492 33.48 137.214 36.3053 137.214 41.956V58.908C137.214 59.636 136.832 60 136.07 60H131.702C130.974 60 130.61 59.636 130.61 58.908V42.268C130.61 41.1587 130.367 40.3787 129.882 39.928C129.431 39.4427 128.651 39.2 127.542 39.2H125.67C123.278 39.2 122.082 40.5173 122.082 43.152V58.908C122.082 59.636 121.718 60 120.99 60ZM147.22 60H142.228C141.604 60 141.396 59.636 141.604 58.908L149.82 27.656C150.063 26.928 150.583 26.564 151.38 26.564H158.296C159.163 26.564 159.683 26.928 159.856 27.656L168.072 58.908C168.28 59.636 168.072 60 167.448 60H162.456C162.075 60 161.815 59.9307 161.676 59.792C161.538 59.6187 161.434 59.324 161.364 58.908L159.908 53.188H149.768L148.312 58.908C148.243 59.324 148.122 59.6187 147.948 59.792C147.81 59.9307 147.567 60 147.22 60ZM154.76 32.856L151.016 47.884H158.712L154.968 32.856H154.76ZM178.194 67.072H173.774C173.046 67.072 172.682 66.7253 172.682 66.032V34.572C172.682 33.844 173.046 33.48 173.774 33.48H178.194C178.922 33.48 179.286 33.844 179.286 34.572V36.288H179.494C179.875 35.352 180.551 34.6587 181.522 34.208C182.492 33.7227 183.515 33.48 184.59 33.48H186.722C189.391 33.48 191.402 34.208 192.754 35.664C194.14 37.12 194.834 39.2173 194.834 41.956V51.524C194.834 54.2627 194.14 56.36 192.754 57.816C191.402 59.272 189.391 60 186.722 60H184.59C183.515 60 182.492 59.7747 181.522 59.324C180.551 58.8387 179.875 58.128 179.494 57.192H179.286V66.032C179.286 66.7253 178.922 67.072 178.194 67.072ZM182.874 54.28H185.162C186.271 54.28 187.051 54.0547 187.502 53.604C187.987 53.1187 188.23 52.3213 188.23 51.212V42.268C188.23 41.1587 187.987 40.3787 187.502 39.928C187.051 39.4427 186.271 39.2 185.162 39.2H182.874C180.482 39.2 179.286 40.5173 179.286 43.152V50.328C179.286 52.9627 180.482 54.28 182.874 54.28ZM206.085 67.072H201.665C200.937 67.072 200.573 66.7253 200.573 66.032V34.572C200.573 33.844 200.937 33.48 201.665 33.48H206.085C206.813 33.48 207.177 33.844 207.177 34.572V36.288H207.385C207.766 35.352 208.442 34.6587 209.413 34.208C210.383 33.7227 211.406 33.48 212.481 33.48H214.613C217.282 33.48 219.293 34.208 220.645 35.664C222.031 37.12 222.725 39.2173 222.725 41.956V51.524C222.725 54.2627 222.031 56.36 220.645 57.816C219.293 59.272 217.282 60 214.613 60H212.481C211.406 60 210.383 59.7747 209.413 59.324C208.442 58.8387 207.766 58.128 207.385 57.192H207.177V66.032C207.177 66.7253 206.813 67.072 206.085 67.072ZM210.765 54.28H213.053C214.162 54.28 214.942 54.0547 215.393 53.604C215.878 53.1187 216.121 52.3213 216.121 51.212V42.268C216.121 41.1587 215.878 40.3787 215.393 39.928C214.942 39.4427 214.162 39.2 213.053 39.2H210.765C208.373 39.2 207.177 40.5173 207.177 43.152V50.328C207.177 52.9627 208.373 54.28 210.765 54.28Z" fill="#3E2179"/>
</svg>
