<svg width="463" height="347" viewBox="0 0 463 347" fill="none" xmlns="http://www.w3.org/2000/svg">
<g clip-path="url(#clip0)">
<path fill-rule="evenodd" clip-rule="evenodd" d="M268.576 117.022C265.124 123.767 261.477 130.333 257.794 136.955C255.844 140.46 249.556 154.96 247.933 155.514C246.184 156.11 235.472 149.815 232.397 148.582C226.934 146.391 221.743 144.316 216.036 142.965C209.646 141.452 203.206 140.336 196.577 140.899C193.674 141.145 188.869 141.847 191.755 137.771C193.858 134.799 195.895 132.063 198.752 129.916C200.831 128.353 203.879 125.487 206.313 124.443C208.867 123.347 212.634 123.59 215.379 123.654C218.346 123.725 232.49 128.135 233.268 123.538C234.711 124.85 235.551 124.343 237.204 124.983C239.067 125.705 240.229 127.107 242.079 127.953C243.279 128.503 245.492 130.674 246.826 130.687C248.6 130.705 249.078 129.237 250.352 128.154C253.206 125.725 257.006 124.127 260.102 122.018C262.829 120.16 265.425 118.223 268.576 117.022ZM237.503 63.7069C237.26 66.7861 238.092 69.6472 238.072 72.8154C238.063 74.198 238.001 75.58 238.421 76.912C238.798 78.1061 238.534 80.2512 238.734 81.5015C235.205 80.4278 228.648 78.8354 225.044 80.2833C221.599 81.6676 221.165 88.0686 221.044 91.1817C220.961 93.3036 221.904 96.5724 221.189 98.6039C220.856 99.5514 220.853 99.8572 220.874 99.9425L220.877 99.9517C220.809 99.9167 220.532 99.9173 219.557 100.621C218.589 101.317 217.435 101.702 216.479 102.471C214.741 103.872 214.443 105.46 213.585 107.491C212.752 109.464 210.533 111.217 208.055 111.146C210.046 107.538 212.812 104.169 211.225 99.9325C210.028 96.7347 212.126 92.9821 213.777 89.9444C214.324 88.9383 220.383 81.2305 217.698 80.6872C215.955 80.334 211.953 88.5158 211.187 89.9444C209.052 88.5016 208.093 86.7235 209.736 84.5505C210.999 82.8818 212.548 81.4549 213.777 79.7272C215.772 76.9228 217.716 73.5757 220.086 71.0848C224.247 66.7111 231.511 63.7336 237.503 63.7069ZM220.877 99.9517C220.9 99.9677 220.89 99.9831 220.88 99.9595L220.877 99.9517ZM293.426 58.9281C296.085 61.4737 299.449 63.5852 302.018 66.2566C304.268 68.5953 307.297 72.5291 308.365 75.6534C302.882 76.7094 293.772 79.9439 291.589 85.6938C283.062 77.8716 279.763 92.1721 278.071 98.1521C273.081 95.9942 274.076 88.81 274.142 84.6155C274.193 81.2882 276.222 77.3499 271.387 77.0773C267.774 76.8744 264.265 78.3447 261.006 79.7215C256.94 81.4396 252.675 84.0098 249.391 86.9618L245.969 84.2998C251.582 81.1506 254.508 75.1292 257.794 69.6157C258.842 67.858 260.242 65.9033 261.006 64.0033C261.535 62.6894 261.907 60.0374 262.487 58.8692C263.399 57.0326 272.305 56.527 274.664 56.0537C280.892 54.8045 288.337 54.0557 293.426 58.9281Z" fill="#FAC738"/>
<path fill-rule="evenodd" clip-rule="evenodd" d="M292.007 99.7427C294.308 99.6251 296.598 100.139 298.899 99.9148C296.901 98.1761 294.904 96.438 292.906 94.6999C292.024 96.2483 291.96 98.0097 292.007 99.7427ZM237.425 64.0043C231.47 64.0305 224.206 67.0193 220.07 71.3844C217.878 73.6979 216.067 76.8043 214.213 79.4035C212.97 81.1473 211.756 82.8303 210.247 84.3628C208.046 86.5962 208.676 87.1068 211.156 88.7887C211.94 87.3193 216.101 79.4632 217.845 79.8165C220.495 80.3538 215.377 88.6524 214.818 89.6862C213.163 92.7449 210.49 97.0174 211.691 100.243C213.275 104.501 210.978 106.929 208.982 110.557C211.078 110.618 211.284 109.801 212.006 108.015C212.934 105.72 213.946 103.802 215.907 102.215C217.426 100.987 219.91 100.469 220.624 98.9855C221.506 97.1515 220.953 93.5298 221.024 91.4896C221.133 88.3894 221.141 81.0604 224.559 79.683C228.141 78.2397 234.582 79.6001 238.083 80.6691C237.646 77.9369 236.267 76.1523 236.286 73.1163C236.306 69.9383 237.182 67.1028 237.425 64.0043ZM191.678 114.706C194.793 113.721 197.746 112.682 200.951 112.011C204.305 111.308 204.529 110.504 206.419 107.629C207.852 105.451 209.591 103.753 209.185 101.085C208.925 99.3735 207.987 98.5397 208.269 96.6153C208.444 95.4224 209.001 94.12 209.404 92.9857C209.897 91.5941 210.92 90.0156 208.542 89.9469C207.228 89.9088 207.164 90.6012 206.275 91.7639C204.635 93.9115 202.747 95.8615 201.001 97.9211C197.969 101.497 194.754 105.303 191.369 108.613C187.644 112.255 184.428 116.648 182.02 121.31C181.575 122.172 178.871 127.243 180.025 128.238C181.084 129.151 186.977 127.021 188.051 126.772C192.689 125.696 197.954 125.312 202.336 123.358C204.568 122.362 209.495 121.174 211.258 119.634C212.897 118.202 212.823 114.733 211.872 112.714C209.21 114.369 189.962 120.614 191.678 114.706ZM249.626 86.2429C252.734 83.4375 256.408 81.1871 260.246 79.5194C263.679 78.0278 267.943 76.3653 271.762 76.6243C276.52 76.9463 274.532 80.7764 274.515 84.0379C274.492 88.3655 272.594 94.6 277.765 96.8453C279.454 90.8528 283.012 76.6828 291.535 84.5349C293.714 78.7731 301.483 76.8231 306.954 75.7649C305.962 72.8539 302.95 70.2189 300.863 68.0338C298.251 65.3005 296.189 62.097 293.573 59.4154C288.404 54.1199 279.04 55.8205 272.496 57.1405C270.312 57.5807 263.98 58.134 262.922 59.7369C262.258 60.7423 262.629 63.1983 262.137 64.4275C261.459 66.1213 260.302 67.6913 259.372 69.2555C255.983 74.9634 252.535 80.7082 246.734 83.9765L249.626 86.2429ZM268.594 116.993C265.526 118.17 263.268 120.138 260.546 121.794C257.246 123.803 253.376 125.685 250.414 128.167C249.33 129.075 248.721 130.642 247.225 130.744C245.924 130.832 243.941 129.322 242.787 128.794C240.852 127.906 239.003 126.561 237.059 125.77C235.46 125.119 234.753 125.252 233.37 123.988C232.594 128.601 218.483 124.289 215.523 124.219C212.784 124.154 209.027 124.478 206.478 125.578C204.049 126.626 202.151 128.933 200.072 130.504C197.222 132.659 194.503 134.839 192.405 137.822C189.526 141.912 193.869 140.754 196.765 140.507C203.376 139.943 209.806 141.516 216.178 143.034C221.874 144.391 227.5 146.019 232.953 148.22C236.019 149.457 239.247 150.595 242.131 152.204C243.651 153.052 246.118 155.129 247.862 154.53C249.462 153.982 251.057 149.398 252.027 147.568C253.911 144.014 255.892 140.52 257.838 137.002C261.512 130.355 265.151 123.764 268.594 116.993ZM230.83 204.964C232.721 203.879 235.804 204.171 237.896 203.716C240.259 203.202 242.635 202.365 244.889 201.492C247.171 200.608 249.327 199.704 251.412 198.598C252.366 198.092 253.637 197.594 254.518 196.893C255.228 196.327 255.487 195.276 256.142 194.763C257.85 193.424 258.352 194.265 258.581 191.682C258.83 188.876 257.255 187.288 255.294 185.188C253.539 183.309 251.259 181.685 249.053 180.364C248.077 179.779 247.035 179.122 246.039 178.564C244.533 177.719 242.514 176.314 241.724 178.127C243.37 178.547 243.733 180.648 242.247 181.403C241.431 181.818 240.196 181.209 239.276 181.65C237.855 182.33 236.489 184.229 235.273 185.251C231.282 188.609 227.466 189.868 222.242 190.137C211.328 190.7 199.898 189.456 189.194 187.839C186.439 187.423 183.688 187.874 180.908 187.775C178.202 187.678 175.381 187.087 172.722 186.63C167.599 185.751 162.199 185.027 157.156 183.733C151.057 182.168 144.936 180.144 139.21 177.523C133.717 175.007 127.509 170.852 121.339 170.532C123.972 173.107 127.917 174.1 131.084 175.796C133.672 177.182 137.72 178.072 139.355 180.356C140.42 181.843 140.954 184.573 141.758 186.316C142.647 188.245 143.468 190.205 144.291 192.163C145.118 194.133 145.979 196.104 146.651 198.133C147.067 199.391 147.246 202.001 148.228 202.862C149.794 204.235 155.038 204.845 157.149 205.301C161.091 206.155 165.587 206.042 169.608 206.101C171.269 206.125 172.944 206.352 174.532 206.382C176.761 206.425 176.549 206.039 176.517 204.105C176.499 202.944 176.522 200.831 178.076 201.788C179.136 202.44 178.407 205.327 178.211 206.353C187.085 207.236 196.345 207.68 205.178 207.385C213.864 207.094 222.25 205.975 230.83 204.964ZM270.909 184.607C272.475 173.37 274.383 161.946 276.519 150.854C278.678 139.646 281.273 128.54 284.192 117.374C282.264 116.913 280.336 116.453 278.407 115.992C278.336 118.345 277.54 120.389 277.2 122.73C276.732 125.963 275.836 129.102 275.3 132.324C274.281 138.448 272.394 144.44 270.731 150.412C269.037 156.501 268.471 162.773 266.914 168.892C265.63 173.933 264.975 179.486 264.258 184.669C262.52 197.241 260.043 209.839 258.158 222.418C256.39 234.211 256.212 246.244 256.314 258.148C256.377 265.416 257.486 272.662 257.428 279.94C257.414 281.739 257.565 283.532 257.659 285.328C257.725 286.595 257.044 290.108 257.622 291.169C257.987 291.841 259.558 292.461 260.114 293.394C260.994 294.87 261.179 296.635 262.593 297.752C263.738 293.136 263.196 287.044 262.946 282.333C262.704 277.794 263.174 273.103 263.267 268.494C263.448 259.453 263.927 250.544 264.391 241.499C264.9 231.579 266.346 221.418 267.758 211.573C269.043 202.621 269.9 193.51 270.909 184.607ZM228.995 43.6879C228.374 43.63 227.753 43.5726 227.132 43.5146C227.225 44.8222 226.948 46.9397 227.871 47.6219C228.569 48.1388 229.985 47.969 230.832 48.1342C233.609 48.6767 236.828 49.1305 239.584 48.1422C240.656 47.7582 239.968 47.1567 241.443 47.4066C243.22 47.7082 242.571 47.9894 243.084 49.097C243.479 49.9519 243.683 51.4065 244.131 52.4329C244.732 53.8063 245.949 56.2641 245.428 57.85C244.923 59.3915 243.036 59.8573 242.234 61.6034C241.638 62.9013 241.779 64.7882 241.469 66.2178C241.056 68.1246 240.533 70.0241 240.302 71.9661C240.012 74.4125 240.111 77.2832 243.145 77.6626C245.96 78.0153 247.973 77.1111 249.861 75.0623C253.467 71.151 257.583 65.6294 259.702 60.7093C259.949 60.1345 260.558 59.1751 260.473 58.56C260.306 57.3428 260.232 58.5748 259.846 57.7296C259.478 56.9213 258.899 56.188 258.559 55.2911C257.336 52.0688 256.469 48.6915 255.979 45.2806C255.756 43.7356 255.682 42.2094 255.72 40.6491C255.733 40.1163 256.053 38.5168 255.862 38.1521C255.667 37.7823 254.653 37.6119 254.337 37.245C253.75 36.5651 252.743 34.6452 252.094 34.1363C251.295 33.5109 249.508 34.0062 249.183 32.7623C248.664 30.7714 260.95 27.5287 255.21 24.8721C250.925 22.8886 244.352 32.9151 242.854 25.0255C242.594 23.6589 243.088 21.8038 242.489 20.5513C241.825 19.1671 240.021 18.6496 238.76 17.976C237.151 17.1171 235.526 16.2345 233.963 15.2938C232.891 14.6492 231.346 12.9372 230.204 12.7804C230.654 15.1041 229.792 17.4074 229.778 19.7266C232.25 19.058 233.952 19.0438 236.392 20.2327C237.554 20.7984 241.932 24.0093 239.714 25.5537C237.917 24.4921 235.994 23.5714 233.991 22.9472C233.2 22.7006 232.214 22.3655 231.373 22.3485C229.422 22.3093 229.697 22.5132 228.965 23.9832C228.258 25.3992 228.41 29.0924 226.86 29.9967C225.257 30.9316 226.493 29.6229 225.125 29.9251C224.344 30.0978 223.493 30.6777 222.779 31.0055C223.758 32.0676 225.734 33.0372 226.384 34.217C227.331 35.9369 227.002 39.4943 227.151 41.3761C228.391 40.9325 229.697 40.9143 230.954 40.5849C232.135 40.2747 233.774 38.9325 233.898 40.9058C234.035 43.1045 230.557 43.6879 228.995 43.6879ZM245.137 101.578C245.233 99.6779 245.339 97.7785 245.551 95.8865C245.693 94.6159 246.901 90.9306 246.218 89.8145C245.476 88.6007 242.989 88.5234 241.792 88.2321C239.497 87.6731 237.297 87.2153 234.965 86.8461C232.82 86.507 230.799 86.4354 228.638 86.3372C226.284 86.231 225.701 85.6067 225.18 88.1985C224.772 90.2365 224.223 92.3592 224.147 94.446C224.075 96.4045 224.667 98.1046 222.724 99.4246C226.99 99.4246 232.545 95.6298 236.437 99.023C242.005 103.876 232.316 105.273 229.761 106.345C231.885 107.376 235.038 108.186 236.037 110.542C237.159 113.183 235.531 114.306 233.04 114.517C233.274 115.535 234.171 116.196 234.438 117.42C234.83 119.214 233.56 118.62 235.18 120.009C237.312 121.836 241.702 123.058 244.317 124.221C244.93 124.495 245.549 124.752 246.176 124.992C247.156 125.864 247.879 125.698 248.347 124.494C249.688 123.646 250.882 121.752 252.072 120.651C254.72 118.201 257.642 116.05 260.788 114.281C259.484 113.741 257.924 114.961 256.673 114.367C255.661 113.887 256.042 113.014 255.436 112.36C255.679 111.508 255.423 111.196 254.667 111.425C254.289 111.465 253.938 111.401 253.613 111.233C252.98 110.45 252.695 110.193 252.653 108.982C252.609 107.698 253.353 107.245 253.639 106.217C254.567 105.585 254.546 104.963 253.576 104.354C253.177 103.702 252.959 102.995 252.923 102.232C252.738 99.3996 255.325 98.2579 257.299 96.7595C253.766 96.3716 253.9 92.2308 256.345 90.4206C258.879 88.5439 264.244 89.3124 267.308 89.7356C267.945 89.823 269.666 90.6444 270.311 90.1207C270.706 89.7998 270.427 87.0864 270.445 86.6076C270.486 85.5204 270.751 84.2242 270.577 83.1427C270.215 80.8781 270.983 82.0186 269.352 81.9556C265.469 81.8051 260.525 85.1921 257.109 86.7888C253.286 88.5763 250.829 88.8512 250.789 93.2828C250.751 97.4792 249.573 101.66 249.059 105.79C248.834 107.593 248.674 116.962 245.371 113.505C244.09 112.164 244.911 110.101 245.006 108.447C245.135 106.171 245.059 103.86 245.137 101.578ZM31.5452 242.047C33.4353 242.382 36.5139 241.298 38.5758 241.184C42.1815 240.986 45.8946 240.643 49.427 239.893C52.1906 239.306 55.3397 238.79 56.8301 236.117C58.1624 233.728 58.6332 230.736 59.3508 228.129C59.7318 226.745 60.715 224.737 60.715 223.306C60.715 221.444 60.4636 221.811 58.5206 220.792C56.0613 219.502 53.6684 217.706 51.0158 216.974C50.2134 216.817 49.4105 216.664 48.607 216.513C47.5676 215.911 46.9807 216.207 46.8448 217.401C45.8304 218.47 45.2356 220.441 44.3844 221.691C42.4436 224.541 40.1389 226.484 37.128 228.127C31.7101 231.084 26.6617 233.367 20.8588 235.3C17.6608 236.366 14.7119 237.861 11.5861 239.035C9.08185 239.977 5.62569 240.263 3.702 242.358C1.53153 244.721 4.8677 245.58 6.72202 247.178C8.24141 248.488 8.27098 248.788 10.3493 248.152C11.8977 247.679 13.2704 246.773 14.7574 246.159C19.8506 244.057 26.0152 242.658 31.5452 242.047ZM147.947 279.535C146.049 279.125 144.151 278.715 142.253 278.305C144.119 281.787 148.046 286.883 145.228 290.914C144.175 292.419 142.423 292.849 140.858 293.613C138.964 294.537 137.215 295.722 135.424 296.824C128.041 301.367 120.537 305.974 112.757 309.872C115.192 310.657 118.937 311.201 121.446 310.517C124.367 309.719 127.071 307.889 130.07 307.089C135.45 305.654 141.113 304.432 146.579 303.696C151.046 303.094 162.23 304.454 161.687 297.739C161.171 291.365 157.361 285.283 156.227 278.981C153.444 279.598 150.79 279.49 147.947 279.535ZM261.093 177.504C263.256 166.893 264.549 156.101 267.101 145.566C268.374 140.31 269.271 134.982 270.515 129.725C271.094 127.28 271.531 124.81 272.094 122.369C272.665 119.897 273.894 117.616 274.174 115.061C272.107 115.572 271.629 120.305 271.002 122.085C269.852 125.351 268.598 128.489 267.121 131.616C264.773 136.586 262.281 141.381 259.632 146.199C256.839 151.282 253.888 156.17 250.398 160.811C249.252 162.336 247.696 163.531 246.957 165.204C245.795 167.835 245.306 170.972 244.196 173.71C244.978 174.107 246.997 174.205 247.956 174.395C249.739 174.746 250.988 175.059 252.701 175.906C255.718 177.399 258.253 179.168 260.269 181.854C260.776 180.475 260.908 178.964 261.093 177.504ZM176.994 258.467C176.959 248.248 176.814 237.941 176.981 227.797C177.027 224.98 177.257 221.941 177.666 219.146C177.922 217.389 179.433 213.655 178.44 212.812C177.591 212.092 173.113 212.566 172.014 212.541C169.882 212.491 167.757 212.396 165.621 212.236C165.621 216.024 167.102 220.325 167.79 224.071C168.431 227.566 168.958 231.08 169.488 234.591C170.634 242.194 170.959 249.902 172.204 257.525C173.331 264.437 174.818 271.32 175.638 278.231C176.087 282.025 176.998 285.604 177.705 289.395C178.075 291.373 179.422 299.515 181.119 300.316C181.477 297.395 180.012 293.868 179.749 290.914C179.479 287.865 179.269 284.794 178.774 281.729C178.193 278.13 177.9 274.442 177.677 270.799C177.541 268.569 177.499 266.347 177.307 264.119C177.167 262.503 176.555 260.053 176.994 258.467ZM230.291 121.809C230.362 120.696 227.479 120.741 226.943 119.462C225.854 116.864 228.336 117.332 229.862 117.063C229.318 115.618 219.128 116.144 221.502 112.245C223.149 109.54 229.394 113.68 231.063 111.11C232.16 109.421 229.175 109.189 227.991 109.019C226.209 108.764 222.012 109.589 222.15 107.278C222.324 104.376 230.484 102.373 232.772 101.52C232.519 99.5325 222.698 102.358 221.277 103.163C218.061 104.987 215.596 108.259 215.124 111.895C214.574 116.126 216.721 119.458 220.95 120.496C222.714 120.929 224.017 120.978 225.648 121.629C226.722 122.056 230.196 123.124 230.932 122.044C230.718 121.965 230.505 121.887 230.291 121.809ZM287.941 95.4923C288.103 93.6855 289.625 90.2843 287.872 89.0971C285.418 87.4357 284.401 90.1735 283.845 91.8179C283.165 93.8258 280.306 98.7407 282.806 99.9921C283.387 100.283 286.143 99.9443 286.629 99.7524C287.983 100.105 288.419 99.5984 287.941 98.2312V95.4923ZM228.05 241.402C227.896 236.464 230.108 230.527 231.362 225.691C232.784 220.21 233.533 214.621 235.038 209.201C233.363 209.403 231.673 209.568 230.017 209.903C227.759 210.362 227.719 210.29 227.881 212.503C228.123 215.827 227.806 219.086 227.634 222.409C227.29 229.062 228.128 235.825 227.571 242.436C228.068 242.562 228.227 242.217 228.05 241.402ZM290.571 111.982C295.996 112.811 301.196 114.53 306.133 116.84C308.854 118.113 311.852 119.48 314.893 119.989C318.272 120.554 321.854 120.289 325.305 120.507C326.521 120.583 329.719 121.174 330.905 120.459C332.08 119.751 331.988 118.55 332.043 117.12C332.185 113.44 330.518 109.836 329.019 106.534C327.734 103.702 326.761 101.539 324.766 99.102C322.204 95.9723 319.972 92.5949 317.573 89.3283C315.763 86.866 313.935 84.4389 312.091 81.9794C310.772 80.2186 310.834 79.6126 308.846 79.8097C306.888 80.0039 304.917 81.1604 303.072 81.7733C300.335 82.6832 297.021 83.1825 294.524 84.6371C292.91 85.5778 292.838 85.751 292.857 87.3925C292.875 88.9216 293.368 90.7864 294.283 91.9826C296.185 94.4659 299.337 95.7803 302.042 97.0191C303.606 97.7354 304.959 98.7515 306.352 99.7399C307.852 100.805 310.88 101.433 312.029 102.647C315.373 106.184 309.286 105.485 307.585 105.378C303.915 105.148 300.265 105.183 296.568 105.18C292.532 105.177 288.529 104.99 284.55 105.121C282.22 105.198 279.546 104.017 278.037 102.048C277.306 101.095 277.021 100.193 276.065 99.2037C274.813 97.908 273.723 96.5431 272.199 95.5406C269.706 93.9002 265.175 92.9721 262.206 93.5844C263.269 93.7326 268.268 95.4332 266.067 97.5706C265.8 97.8308 262.584 98.0012 261.885 98.3221C260.624 98.9009 259.034 99.7421 258.294 100.964C260.448 100.604 268.437 100.186 264.362 104.316C263.361 105.33 260.489 106.342 262.933 107.42C263.494 107.668 264.618 107.317 265.341 107.54C266.415 107.873 267.293 108.761 268.299 109.235C271.154 110.581 275.088 111.411 278.067 111.116C282.187 110.707 286.479 111.442 290.571 111.982ZM181.332 236.425C181.472 242.358 181.258 248.326 181.385 254.286C181.52 260.651 182.337 266.889 182.727 273.19C183.076 278.837 183.84 284.376 184.459 289.997C184.816 293.234 185.227 296.33 185.775 299.542C186.289 302.549 186.376 305.198 182.78 306.006C175.903 307.552 174.835 297.667 173.506 293.501C171.522 287.285 170.25 280.759 169.267 274.315C167.437 262.314 165.004 250.48 164.054 238.376C163.469 230.924 162.622 223.547 162.141 216.101C162.046 214.642 162.419 212.394 161.136 211.744C160.365 211.354 158.241 211.35 157.267 211.067C154.555 210.279 152.053 209.118 149.407 207.913C151.285 217.727 151.905 227.492 153.314 237.392C154.061 242.645 155.492 248.088 156.732 253.259C158.016 258.616 158.302 264.385 159.784 269.626C160.436 271.936 160.989 272.877 160.042 275.248C158.879 278.158 159.65 278.855 161.108 281.713C163.788 286.972 165.835 293.178 165.381 299.106C165.01 303.948 161.349 306.482 156.814 307.788C151.141 309.422 145.201 309.229 139.495 311.084C134.523 312.7 129.471 313.894 124.643 316.027C122.696 316.887 120.846 317.908 118.684 318.066C115.719 318.281 113.72 316.562 110.919 316.204C109.169 315.98 106.606 316.815 105.598 314.981C104.798 313.528 105.703 310.356 106.707 309.186C109.525 305.898 115.17 303.033 118.972 301.092C123.353 298.856 127.592 296.057 131.651 293.171C134.112 291.421 136.621 289.742 139.08 287.989C140.706 286.829 141.325 286.821 141.158 284.978C141.026 283.508 140.363 282.082 140.247 280.577C140.158 279.424 140.563 277.852 140.017 277.1C139.616 276.545 138.111 276.153 137.519 275.733C135.354 274.199 134.862 272.302 133.879 269.97C131.646 264.671 129.08 259.522 126.924 254.181C122.294 242.713 119.469 230.655 115.631 218.954C111.709 206.999 108.203 194.449 106.044 182.046C103.154 182.924 100.427 186.813 98.1254 188.737C95.0161 191.337 91.8306 193.852 88.7816 196.523C83.7839 200.902 78.7236 205.161 74.5936 210.406C72.604 212.931 70.9748 215.65 69.1734 218.304C68.1328 219.837 67.1627 221.572 66.0357 223.031C65.8548 223.265 65.8497 223.745 65.6547 223.945C65.2254 224.383 64.406 223.799 64.1307 224.088C62.4328 225.862 62.455 230.9 61.9256 233.242C61.1966 236.469 60.3778 240.179 57.8564 242.402C53.9619 245.837 46.7794 246.369 41.8505 246.548C35.525 246.777 29.3889 248.538 23.3875 250.43C20.5882 251.312 17.8621 252.344 15.0525 253.201C13.4364 253.694 11.5929 254.678 9.86713 254.489C7.78593 254.261 6.14258 252.511 4.61807 251.21C2.1792 249.129 -0.0788457 247.078 -0.000201729 243.665C0.087764 240.051 2.04671 237.323 5.13269 235.528C11.0988 232.058 17.7717 229.834 24.2024 227.436C26.6669 226.516 28.7765 225.499 31.1329 224.261C34.4623 222.511 38.2949 221.084 41.2489 218.774C42.1201 218.092 45.3209 216.004 45.5938 214.927C45.6297 214.787 44.8296 213.143 44.8262 212.882C44.8182 212.211 45.2157 211.485 45.4602 210.911C46.9989 207.296 49.58 203.815 51.5531 200.406C55.1668 194.163 58.7941 187.886 62.9838 182.014C71.3382 170.307 80.7229 158.844 90.852 148.625C95.79 143.643 100.057 137.992 105.064 133.078C107.048 131.132 109.143 129.548 111.587 128.284C114.312 126.876 117.371 126.6 120.494 126.17C128.063 125.129 134.384 127.367 141.491 129.314C148.208 131.154 154.934 132.706 161.689 134.623C169.108 136.728 176.451 138.748 183.846 141.042C187.798 142.268 191.863 143.02 195.833 144.197C197.745 144.762 204.972 148.309 206.566 147.144C201.545 144.79 196.401 142.644 191.029 141.222C189.447 140.804 188.437 141.267 188.496 139.452C188.528 138.462 189.641 137.125 190.042 136.31C191.002 134.359 192.089 132.452 193.028 130.496C189.623 131.462 180.469 134.806 177.902 131.349C175.217 127.73 177.459 120.635 179.142 117.092C183.536 107.842 191.009 100.124 198.29 93.1516C199.865 91.6441 203.261 89.6754 204.1 87.7555C204.355 87.1716 203.8 86.3139 204.376 85.5556C204.718 85.1046 206.094 84.7962 206.644 84.31C208.646 82.5389 210.243 78.8122 211.626 76.4902C213.075 74.0586 214.381 71.4253 216.202 69.2436C219.18 65.676 222.254 61.8942 227.077 61.0598C229.442 60.6508 231.954 60.8689 234.221 60.0527C236.962 59.0655 239.567 57.5103 242.335 56.4879C241.648 55.077 241.091 52.8334 239.759 52.6794C238.476 52.5306 236.595 53.6325 235.126 53.6246C232.982 53.6127 231.152 53.2702 229.082 52.8618C226.792 52.4091 226.037 52.4914 225.203 50.0087C224.327 47.4078 224.548 44.3871 224.555 41.6857C224.558 40.3656 224.82 38.7269 224.708 37.4313C224.539 35.4791 224.159 35.4041 222.628 34.1624C220.714 32.6112 218.356 30.5584 220.7 27.8632C221.966 26.4069 224.569 27.5395 225.69 25.9746C226.833 24.3808 226.778 20.3769 227.126 18.5048C223.604 20.2349 224.895 13.767 224.894 12.2107C224.894 9.94607 223.375 5.87346 225.561 3.98939C226.578 3.11466 227.332 3.8383 228.494 3.33561C229.819 2.76193 230.654 1.25728 232.064 0.673936C234.867 -0.485932 237.729 0.910795 240.607 0.680185C243.908 0.416062 247.15 -0.0940075 250.469 0.435374C252.042 0.685297 252.704 1.28227 254.035 1.95138C255.314 2.59493 256.612 2.77101 258.002 3.18509C259.239 3.55373 260.323 3.74003 261.158 4.81697C261.819 5.66898 261.55 7.10206 262.217 7.83649C262.875 8.56013 264.177 8.45505 264.961 9.31444C265.714 10.1392 266.164 11.5024 266.555 12.5288C267.084 13.9113 267.146 14.4305 268.077 15.5369C268.888 16.5026 270.057 17.279 270.734 18.3804C272.33 20.9767 272.371 24.7313 271.861 27.6519C271.688 28.6465 270.246 31.2173 270.472 32.0636C270.687 32.8691 272.039 32.6572 272.652 33.1667C273.181 33.6069 273.647 35.5682 274.064 35.6881C274.966 35.9465 276.078 34.167 276.762 33.9C277.949 33.436 278.446 32.96 279.104 34.7089C279.591 36.0067 278.912 37.7681 278.555 39.007C278.1 40.5837 277.597 42.4826 276.392 43.6748C274.975 45.0767 273.84 44.3104 272.276 45.0653C269.933 46.1968 270.625 49.7343 267.741 50.7454C264.993 51.7087 261.966 48.6778 259.888 47.2845C260.318 50.667 261.939 53.9262 261.161 57.3927C267.481 54.9185 273.731 51.4071 280.618 50.6335C284.13 50.2387 287.678 49.7712 290.993 51.2282C294.873 52.9333 297.251 56.6947 299.877 59.8198C304.814 65.6936 309.878 71.4026 314.616 77.4655C318.962 83.0268 322.626 89.4709 327.409 94.6784C332.259 99.9591 335.919 108.527 335.388 115.839C335.34 116.499 334.828 117.999 334.909 118.711C334.971 119.256 335.467 119.947 335.459 120.387C335.432 121.867 334.943 122.719 333.531 123.539C331.085 124.963 327.438 125.684 324.673 126.037C320.999 126.507 316.5 126.558 312.824 126.056C309.033 125.538 305.701 123.418 302.214 122.136C299.156 121.012 296.085 120.31 292.872 119.592C291.099 119.196 289.137 118.101 288.042 119.161C287.036 120.136 286.827 125.137 286.593 126.466C284.051 140.879 281.029 154.803 278.353 169.142C275.321 185.395 273.247 201.642 271.138 218.033C269.221 232.932 268.595 248 268.166 262.886C267.961 269.987 267.931 277.011 267.975 284.118C267.999 288.097 269.99 301.381 264.086 301.89C260.617 302.19 257.842 297.219 256.912 294.509C255.515 290.436 254.788 286.05 254.565 281.772C254.115 273.111 253.524 264.444 253.174 255.78C252.796 246.393 253.277 236.833 254.049 227.476C254.827 218.058 256.785 208.777 257.386 199.344C255.584 201.913 255.007 202.396 252.006 203.515C248.865 204.687 245.844 206.073 242.675 207.165C241.597 207.537 239.914 207.769 239.031 208.378C237.4 209.5 238.471 208.227 237.95 210.411C237.394 212.745 237.289 215.547 237.142 217.945C236.447 229.2 233.327 240.375 231.888 251.571C231.541 254.274 232.036 265.749 227.381 262.132C223.796 259.347 223.867 250.599 223.357 246.502C222.678 241.04 223.056 235.424 223.163 229.929C223.286 223.671 223.391 217.107 224.885 210.996C222.212 210.539 218.493 211.785 215.801 211.994C213.471 212.175 211.149 212.291 208.832 212.418C203.306 212.721 197.614 212.963 191.994 212.855C190.971 212.835 184.288 211.9 183.434 212.654C183.157 212.899 183.072 216.266 183.02 216.677C182.823 218.224 182.557 219.77 182.358 221.308C181.723 226.227 181.15 231.508 181.332 236.425Z" fill="white"/>
<path fill-rule="evenodd" clip-rule="evenodd" d="M280.579 283.166C284.796 284.813 289.272 285.411 293.525 286.911C297.328 288.252 300.858 290.055 304.602 291.419C304.821 289.683 304.938 286.744 304.296 285.109C303.389 282.793 300.999 282.736 298.646 281.911C292.919 279.903 286.895 279.48 281.21 277.134C282.183 279.007 281.749 281.486 280.579 283.166ZM353.38 277.109C344.271 277.376 335.567 279.494 326.59 280.804C322.222 281.441 317.85 282.01 313.478 282.605C311.795 282.833 308.729 282.564 307.506 284.019C306.492 285.225 307.603 289.34 307.153 291.108C308.994 291.243 312.262 289.525 314.261 289.24C317.372 288.798 320.442 288.179 323.586 287.982C328.565 287.668 333.457 287.402 338.428 286.848C343.482 286.285 348.373 285.238 353.468 284.856C355.945 284.67 356.941 285.134 357.087 282.521C357.144 281.5 357.285 279.79 356.998 278.782C357.456 277.544 357.05 276.943 355.779 276.978C354.971 276.887 354.172 276.931 353.38 277.109ZM335.763 268.771C338.226 268.54 340.7 268.209 343.169 268.07C343.67 268.042 346.209 268.194 346.624 267.729C347.211 267.071 346.557 264.664 346.45 263.919C346.083 261.387 345.679 259.914 342.914 259.909C340.581 259.903 338.166 260.396 335.842 260.623C325.291 261.657 314.795 262.093 304.361 264.055C304.996 266.758 305.717 269.546 304.958 272.31C309.963 272.568 315.458 271.605 320.349 270.618C325.349 269.609 330.654 269.108 335.763 268.771ZM319.065 243.325C315.296 243.342 311.312 245.001 307.593 244.631C307.537 245.322 308.727 244.749 309.056 245.396C309.758 245.397 310.003 245.626 309.788 246.084C309.801 246.395 309.642 246.578 309.309 246.631C309.145 246.646 308.981 246.66 308.818 246.674C308.099 246.697 307.98 247.182 308.465 248.129C308.257 249.303 308.569 250.794 308.614 251.972C315.298 251.063 321.792 250.118 328.523 249.712C331.701 249.521 334.877 249.521 338.05 249.26C341.543 248.972 345.355 249.589 348.769 248.935C350.594 248.586 350.402 248.611 350.269 246.239C350.188 244.798 350.218 243.087 349.044 242.036C347.084 240.281 342.619 241.296 340.274 241.357C333.213 241.544 326.032 242.199 319.065 243.325ZM322.924 277.194C333.021 276.278 343.043 274.27 353.198 274.27C352.48 273.553 350.916 273.369 350.022 272.977C349.004 272.532 348.042 271.583 347.046 271.193C345.048 270.411 343.015 271.497 340.962 271.967C336.012 273.1 330.932 273.138 325.974 274.249C320.848 275.398 315.655 276.457 310.434 277.041C307.948 277.318 305.281 277.882 302.824 277.226C302.625 277.083 302.425 276.941 302.225 276.799C302.011 275.885 301.415 275.641 300.437 276.067C299.196 275.83 297.615 276.136 296.365 276.167C296.314 276.666 300.932 278.23 301.812 278.618C303.934 279.551 305.372 280.234 307.638 279.835C312.739 278.934 317.757 277.859 322.924 277.194ZM287.402 247.693C287.797 249.23 289.454 248.531 290.881 248.7C292.795 248.927 294.7 249.587 296.555 250.085C299.923 250.989 303.292 251.881 306.646 252.837C306.514 251.483 306.813 248.403 306.097 247.202C305.346 245.943 301.785 245.391 300.127 245.007C295.948 244.041 291.483 244.591 287.237 244.794C287.312 245.759 287.367 246.725 287.402 247.693ZM327.552 257.31C331.518 256.974 335.488 256.714 339.465 256.574C344.012 256.415 340.707 255.689 340.611 252.917C334.635 253.87 328.605 254.058 322.648 254.872C317.712 255.548 311.832 257.311 306.797 256.364C304.423 255.917 301.998 255.745 299.472 255.493C297.089 255.255 294.841 254.145 292.487 253.87C289.844 253.56 287.144 255.044 284.515 255.436C283.401 255.603 283.142 256.358 282.616 255.018C282.07 253.628 283.633 252.491 284.249 251.66C284.967 250.689 284.669 252.266 285.068 250.749C285.18 250.325 284.876 249.257 284.821 248.799C284.68 247.642 284.316 246.386 284.259 245.231C284.207 244.171 284.198 242.552 285.35 241.932C286.054 241.555 286.552 242.106 287.165 241.999C291.951 241.167 297.581 241.099 302.434 241.902C307.696 242.771 312.225 240.468 317.411 239.534C323.495 238.439 329.643 238.275 335.779 237.812C341.026 237.416 350.613 235.364 352.612 242.061C353.178 243.959 354.002 249.183 352.479 250.797C350.481 252.917 345.854 252.241 343.27 252.792C343.657 253.891 344.807 254.638 344.409 255.946C348.031 256.117 348.671 259.535 349.238 262.726C349.825 266.027 348.68 267.339 351.837 269.059C356.238 271.454 360.9 273.874 360.813 279.58C360.77 282.449 360.449 286.776 357.501 288.264C354.617 289.72 349.921 289.474 346.743 290.003C340.588 291.027 334.412 292.228 328.22 292.843C321.627 293.498 314.924 294.036 308.319 294.328C304.721 294.488 301.612 295.031 298.137 293.821C294.72 292.632 291.378 291.763 287.853 290.88C284.372 290.009 273.718 288.835 276.823 282.888C277.32 281.936 279.017 281.179 279.292 280.279C279.734 278.828 278.24 277.695 278.302 276.383C278.416 273.984 281.126 273.682 282.997 273.682C279.79 271.678 284.084 269.305 284.059 267.604C284.014 264.606 280.283 262.66 280.072 260.147C279.558 254.031 298.973 260.399 301.961 261.722C299.661 265.13 288.991 262.181 285.812 261.664C286.246 262.802 286.661 263.825 286.786 264.99C286.888 265.94 286.525 267.025 286.857 267.98C287.381 269.491 287.363 269.202 289.22 269.614C290.594 269.919 291.952 270.271 293.322 270.594C295.425 271.09 298.733 272.42 300.817 272.347C302.645 272.284 302.284 272.85 302.619 270.821C302.799 269.731 302.492 268.572 302.308 267.504C301.924 265.266 301.363 263.147 303.319 261.541C305.184 260.01 309.116 259.281 311.403 258.741C316.481 257.542 322.342 257.248 327.552 257.31Z" fill="white"/>
<path fill-rule="evenodd" clip-rule="evenodd" d="M351.715 219.105C346.2 218.182 340.597 217.954 335.017 218.234C335.32 219.614 335.622 220.994 335.925 222.372C341.152 221.027 346.455 220.239 351.715 219.105ZM306.872 229.808C304.661 229.646 306.199 230.635 306.745 232.081C307.417 233.858 307.273 236.105 307.427 237.976C313.898 235.51 321.427 234.067 328.306 233.237C331.569 232.844 334.879 232.731 338.16 232.563C339.13 232.513 342.632 232.919 343.342 232.267C343.868 231.782 343.499 229.107 342.993 228.517C340.239 225.309 329.594 228.079 325.743 228.366C319.429 228.838 313.231 229.965 306.872 229.808ZM316.063 221.212C321.792 221.762 327.325 221.71 333.055 222.568C332.62 218.929 333.139 218 329.008 217.806C325.326 217.635 321.656 217.496 317.991 217.497C309.75 217.502 301.528 217.345 293.278 217.345V221.043C300.908 220.262 308.417 221.672 316.063 221.212ZM288.511 234.814C292.127 234.798 295.545 236.162 299.161 236.515C301.325 236.726 300.645 236.995 302.147 238.081C304.485 239.772 305.159 238.871 304.866 236.573C303.872 228.797 294.02 230.541 288.343 230.109C288.716 231.963 287.859 233.535 286.595 234.814H288.511ZM327.596 224.831C322.395 224.915 317.187 225.21 312.023 225.102C309.711 225.054 306.716 224.596 304.45 224.99C302.79 225.279 301.402 226.123 299.582 226.437C302.256 227.877 303.611 226.904 306.423 226.576C309.232 226.25 312.082 226.256 314.902 226.086C319.534 225.805 324.471 224.697 329.034 224.998C329.117 224.356 328.638 224.3 327.596 224.831ZM286.343 241.671C283.957 241.666 287.24 238.954 287.671 238.685C285.029 238.685 284.39 237.102 285.155 234.558C285.876 232.162 286.41 232.895 284.595 230.9C283.229 229.397 283.023 228.29 284.633 226.611C286.272 224.902 289.59 225.385 291.042 223.975C293.514 221.574 290.324 216.792 293.749 214.952C296.064 213.71 299.796 213.864 302.352 213.601C304.823 213.347 307.38 213.298 309.868 213.265C315.289 213.191 320.92 214.099 326.318 214.599C328.286 214.781 330.498 215.575 332.437 215.577C334.414 215.579 336.485 215.139 338.526 215.19C340.899 215.249 343.186 215.074 345.633 215.464C347.508 215.762 351.886 215.919 353.319 217.312C358.095 221.954 346.77 224.086 344.822 224.607C346.805 226.778 346.722 229.648 346.423 232.381C347.367 232.381 348.995 231.971 349.483 233.028C350.09 234.342 347.844 234.684 347.313 234.837C344.257 235.719 340.681 235.477 337.532 235.797C331.237 236.438 325.018 236.807 318.788 237.999C315.752 238.579 312.734 239.298 309.7 239.864C309.176 239.962 308.65 240.04 308.121 240.099C307.309 240.029 307.046 240.538 307.333 241.629C306.49 242.04 303.351 241.016 302.38 240.859C296.822 239.958 291.85 240.332 286.343 241.671Z" fill="white"/>
<path fill-rule="evenodd" clip-rule="evenodd" d="M398.575 295.603C394.991 298.422 391.658 301.082 387.776 303.532C390.52 303.446 399.647 299.073 398.575 295.603ZM397.175 291.009C395.219 289.329 393.275 289.501 390.853 288.991C388.623 288.522 386.456 287.715 384.231 287.177C382.484 286.756 380.755 286.185 379.015 285.787C376.558 285.224 376.315 285.844 374.055 287.13C366.04 291.695 357.071 294.835 348.629 298.539C351.108 300.72 356.684 300.814 359.781 301.509C362.043 302.016 364.196 302.71 366.362 303.513C368.379 304.262 371.629 305.983 373.757 306.04C375.552 306.089 377.012 304.323 378.558 303.372C380.592 302.12 382.617 300.89 384.666 299.67C389.004 297.087 393.059 293.923 397.175 291.009ZM360.954 309.497C360.028 308.608 357.243 308.647 356.083 308.375C353.798 307.842 351.546 307.287 349.231 306.887C345.473 306.237 339.536 305.946 339.128 301.074C338.788 297.026 343.684 296.065 346.547 294.693C350.853 292.63 355.246 290.726 359.661 288.906C363.801 287.2 368.001 285.758 372.216 284.284C373.037 283.997 373.705 284.036 374.376 283.379C374.905 282.86 374.742 281.853 375.322 281.311C376.651 280.069 378.374 280.722 379.971 281.041C383.597 281.763 387.362 282.712 390.818 284.053C394.41 285.446 397.624 285.737 398.486 289.806C400.323 288.945 401.705 288.82 401.485 291.35C401.421 292.094 400.88 292.902 400.75 293.669C400.56 294.8 400.894 295.991 400.705 297.125C400.018 301.246 394.457 304.298 391.011 305.917C386.762 307.912 381.28 310.86 376.536 311.249C371.481 311.665 365.972 309.681 360.954 309.497Z" fill="white"/>
<path fill-rule="evenodd" clip-rule="evenodd" d="M296.609 241.127C295.102 241.137 293.594 241.146 292.088 241.156C293.592 240.874 295.099 240.87 296.609 241.127Z" fill="white"/>
<path fill-rule="evenodd" clip-rule="evenodd" d="M208.44 81.78C207.988 82.5327 207.536 83.2854 207.084 84.0391C207.238 83.0686 207.583 82.2368 208.44 81.78Z" fill="white"/>
<path fill-rule="evenodd" clip-rule="evenodd" d="M296.609 262.723C297.515 262.731 298.421 262.739 299.322 262.747C298.415 262.74 297.512 262.732 296.609 262.723Z" fill="white"/>
<path fill-rule="evenodd" clip-rule="evenodd" d="M317.408 213.572C316.353 213.515 315.298 213.458 314.243 213.401C315.298 213.458 316.353 213.515 317.408 213.572Z" fill="white"/>
<path fill-rule="evenodd" clip-rule="evenodd" d="M299.322 241.15C298.418 241.141 297.513 241.133 296.609 241.125C297.517 240.877 298.422 240.886 299.322 241.15Z" fill="white"/>
<path fill-rule="evenodd" clip-rule="evenodd" d="M335.306 112.956C335.281 112.052 335.256 111.148 335.23 110.245C335.256 111.15 335.281 112.052 335.306 112.956Z" fill="white"/>
<path fill-rule="evenodd" clip-rule="evenodd" d="M181.565 249.406C181.547 248.653 181.528 247.9 181.51 247.147C181.529 247.901 181.547 248.653 181.565 249.406Z" fill="white"/>
<path fill-rule="evenodd" clip-rule="evenodd" d="M206.18 212.582C206.785 212.582 207.388 212.582 207.988 212.584C207.383 212.584 206.781 212.582 206.18 212.582Z" fill="white"/>
<path fill-rule="evenodd" clip-rule="evenodd" d="M287.114 50.2966C286.36 50.3513 285.607 50.4055 284.854 50.4602C285.607 50.4055 286.361 50.3513 287.114 50.2966Z" fill="white"/>
<path fill-rule="evenodd" clip-rule="evenodd" d="M344.085 215.303C343.181 215.297 342.276 215.291 341.372 215.285C342.276 215.291 343.181 215.297 344.085 215.303Z" fill="white"/>
<path fill-rule="evenodd" clip-rule="evenodd" d="M267.932 271.094C267.909 270.491 267.886 269.887 267.864 269.287C267.886 269.89 267.909 270.493 267.932 271.094Z" fill="white"/>
<path fill-rule="evenodd" clip-rule="evenodd" d="M268.827 248.051C268.81 247.448 268.794 246.845 268.778 246.244C268.795 246.846 268.811 247.449 268.827 248.051Z" fill="white"/>
<path fill-rule="evenodd" clip-rule="evenodd" d="M253.397 258.443C253.418 259.046 253.44 259.65 253.462 260.25C253.44 259.646 253.418 259.045 253.397 258.443Z" fill="white"/>
<path fill-rule="evenodd" clip-rule="evenodd" d="M209.797 212.14C210.251 212.134 210.704 212.128 211.153 212.122C210.698 212.128 210.248 212.134 209.797 212.14Z" fill="white"/>
<path fill-rule="evenodd" clip-rule="evenodd" d="M340.92 235.655C341.373 235.636 341.827 235.616 342.276 235.596C341.822 235.616 341.37 235.636 340.92 235.655Z" fill="white"/>
<path fill-rule="evenodd" clip-rule="evenodd" d="M254.295 272.901C254.321 273.504 254.346 274.108 254.372 274.708C254.346 274.103 254.321 273.502 254.295 272.901Z" fill="white"/>
<path fill-rule="evenodd" clip-rule="evenodd" d="M302.759 269.739C302.729 270.342 302.698 270.945 302.668 271.546C302.698 270.942 302.729 270.34 302.759 269.739Z" fill="white"/>
<path fill-rule="evenodd" clip-rule="evenodd" d="M250.646 0.518191C250.007 0.436863 249.368 0.356212 248.729 0.274884C249.362 0.421275 250.057 -0.12159 250.646 0.518191Z" fill="white"/>
<path fill-rule="evenodd" clip-rule="evenodd" d="M223.161 232.237C223.144 232.84 223.127 233.444 223.109 234.044C223.126 233.44 223.144 232.838 223.161 232.237Z" fill="white"/>
<path fill-rule="evenodd" clip-rule="evenodd" d="M184.297 287.359C184.266 286.757 184.235 286.154 184.204 285.552C184.235 286.155 184.266 286.757 184.297 287.359Z" fill="white"/>
<path fill-rule="evenodd" clip-rule="evenodd" d="M330.521 236.543C330.975 236.534 331.428 236.524 331.877 236.515C331.422 236.525 330.971 236.534 330.521 236.543Z" fill="white"/>
<path fill-rule="evenodd" clip-rule="evenodd" d="M177.011 126.962C177.015 127.566 177.018 128.169 177.021 128.77C177.017 128.166 177.015 127.564 177.011 126.962Z" fill="white"/>
<path fill-rule="evenodd" clip-rule="evenodd" d="M167.525 262.509C167.523 263.113 167.521 263.716 167.517 264.317C167.519 263.713 167.522 263.111 167.525 262.509Z" fill="white"/>
<path fill-rule="evenodd" clip-rule="evenodd" d="M280.216 258.895C280.199 259.498 280.184 260.102 280.166 260.702C279.919 260.082 279.947 259.482 280.216 258.895Z" fill="white"/>
<path fill-rule="evenodd" clip-rule="evenodd" d="M268.357 256.184C268.352 255.581 268.348 254.978 268.343 254.376C268.348 254.981 268.352 255.582 268.357 256.184Z" fill="white"/>
<path fill-rule="evenodd" clip-rule="evenodd" d="M360.814 309.706C361.268 309.718 361.722 309.731 362.171 309.744C361.715 309.731 361.265 309.719 360.814 309.706Z" fill="white"/>
<path fill-rule="evenodd" clip-rule="evenodd" d="M344.537 252.351C344.839 252.346 345.143 252.341 345.441 252.335C345.137 252.341 344.837 252.346 344.537 252.351Z" fill="white"/>
<path fill-rule="evenodd" clip-rule="evenodd" d="M333.233 253.7C333.537 253.699 333.839 253.698 334.138 253.698C333.834 253.699 333.534 253.699 333.233 253.7Z" fill="white"/>
<path fill-rule="evenodd" clip-rule="evenodd" d="M157.149 256.635C157.131 256.183 157.112 255.731 157.094 255.28C157.113 255.733 157.131 256.185 157.149 256.635Z" fill="white"/>
<path fill-rule="evenodd" clip-rule="evenodd" d="M342.276 256.292C341.884 256.69 341.378 256.455 340.92 256.48C341.372 256.418 341.825 256.355 342.276 256.292Z" fill="white"/>
<path fill-rule="evenodd" clip-rule="evenodd" d="M288.471 241.837C287.874 242.119 287.27 242.158 286.662 241.856C287.265 241.85 287.868 241.844 288.471 241.837Z" fill="white"/>
<path fill-rule="evenodd" clip-rule="evenodd" d="M327.808 257.321C327.205 257.316 326.601 257.311 325.999 257.305C326.602 257.311 327.205 257.316 327.808 257.321Z" fill="white"/>
<path fill-rule="evenodd" clip-rule="evenodd" d="M302.487 241.581C301.884 241.527 301.281 241.472 300.679 241.417C301.281 241.472 301.884 241.527 302.487 241.581Z" fill="white"/>
<path fill-rule="evenodd" clip-rule="evenodd" d="M164.374 239.466C164.362 239.919 164.35 240.372 164.338 240.822C164.349 240.368 164.362 239.917 164.374 239.466Z" fill="white"/>
<path fill-rule="evenodd" clip-rule="evenodd" d="M268.315 263.865C268.339 263.412 268.362 262.959 268.385 262.509C268.362 262.963 268.339 263.414 268.315 263.865Z" fill="white"/>
<path fill-rule="evenodd" clip-rule="evenodd" d="M330.521 237.809C329.918 237.86 329.315 237.91 328.712 237.961C329.315 237.91 329.918 237.86 330.521 237.809Z" fill="white"/>
<path fill-rule="evenodd" clip-rule="evenodd" d="M181.556 236.303C181.544 235.851 181.531 235.398 181.519 234.948C181.531 235.402 181.544 235.853 181.556 236.303Z" fill="white"/>
<path fill-rule="evenodd" clip-rule="evenodd" d="M257.1 201.513C257.064 201.966 257.028 202.418 256.993 202.869C257.029 202.416 257.064 201.965 257.1 201.513Z" fill="white"/>
<path fill-rule="evenodd" clip-rule="evenodd" d="M339.563 215.186C338.96 215.498 338.357 215.459 337.755 215.182C338.358 215.183 338.961 215.185 339.563 215.186Z" fill="white"/>
<path fill-rule="evenodd" clip-rule="evenodd" d="M267.938 277.871C267.911 277.419 267.885 276.967 267.858 276.516C267.885 276.969 267.911 277.42 267.938 277.871Z" fill="white"/>
<path fill-rule="evenodd" clip-rule="evenodd" d="M267.926 281.486C267.907 281.034 267.888 280.581 267.869 280.13C267.889 280.583 267.908 281.034 267.926 281.486Z" fill="white"/>
<path fill-rule="evenodd" clip-rule="evenodd" d="M182.432 221.845C182.439 221.393 182.445 220.94 182.451 220.49C182.445 220.943 182.439 221.394 182.432 221.845Z" fill="white"/>
<path fill-rule="evenodd" clip-rule="evenodd" d="M311.078 293.923C311.381 293.915 311.683 293.906 311.982 293.898C311.678 293.907 311.378 293.915 311.078 293.923Z" fill="white"/>
<path fill-rule="evenodd" clip-rule="evenodd" d="M165.297 297.751C165.272 297.299 165.248 296.847 165.224 296.396C165.249 296.848 165.272 297.3 165.297 297.751Z" fill="white"/>
<path fill-rule="evenodd" clip-rule="evenodd" d="M263.15 301.583C263.453 301.589 263.756 301.595 264.055 301.601C263.751 301.595 263.451 301.589 263.15 301.583Z" fill="white"/>
<path fill-rule="evenodd" clip-rule="evenodd" d="M328.712 214.91C328.109 214.865 327.506 214.819 326.903 214.773C327.506 214.819 328.109 214.865 328.712 214.91Z" fill="white"/>
<path fill-rule="evenodd" clip-rule="evenodd" d="M331.877 215.387L330.521 215.2L331.877 215.387Z" fill="white"/>
<path fill-rule="evenodd" clip-rule="evenodd" d="M263.338 262.961C263.364 261.605 263.389 260.25 263.414 258.895C263.389 260.251 263.364 261.606 263.338 262.961Z" fill="white"/>
<path fill-rule="evenodd" clip-rule="evenodd" d="M228.085 213.26C228.101 214.315 228.116 215.37 228.132 216.423C228.117 215.367 228.101 214.314 228.085 213.26Z" fill="white"/>
<path fill-rule="evenodd" clip-rule="evenodd" d="M150.113 279.438C149.359 279.448 148.603 279.457 147.853 279.466C148.609 279.457 149.361 279.448 150.113 279.438Z" fill="white"/>
<path fill-rule="evenodd" clip-rule="evenodd" d="M212.058 189.557C211.302 189.546 210.547 189.533 209.797 189.522C210.554 189.535 211.306 189.546 212.058 189.557Z" fill="white"/>
<path fill-rule="evenodd" clip-rule="evenodd" d="M192.615 207.162C193.369 207.161 194.123 207.161 194.876 207.16C194.122 207.16 193.369 207.161 192.615 207.162Z" fill="white"/>
<path fill-rule="evenodd" clip-rule="evenodd" d="M202.562 189.073C201.958 189.083 201.353 189.093 200.754 189.103C201.361 189.093 201.962 189.083 202.562 189.073Z" fill="white"/>
<path fill-rule="evenodd" clip-rule="evenodd" d="M153.73 279.457C153.126 279.454 152.522 279.451 151.922 279.448C152.529 279.451 153.13 279.454 153.73 279.457Z" fill="white"/>
<path fill-rule="evenodd" clip-rule="evenodd" d="M235.117 48.6495C235.87 48.597 236.625 48.5451 237.378 48.4927C236.624 48.5451 235.87 48.597 235.117 48.6495Z" fill="white"/>
<path fill-rule="evenodd" clip-rule="evenodd" d="M245.249 101.66C245.277 100.907 245.305 100.154 245.333 99.4011C245.304 100.155 245.277 100.908 245.249 101.66Z" fill="white"/>
<path fill-rule="evenodd" clip-rule="evenodd" d="M226.979 108.663C226.525 108.663 226.071 108.664 225.622 108.664C226.077 108.664 226.528 108.664 226.979 108.663Z" fill="white"/>
<path fill-rule="evenodd" clip-rule="evenodd" d="M188.546 187.725C188.092 187.73 187.639 187.735 187.189 187.74C187.645 187.736 188.095 187.731 188.546 187.725Z" fill="white"/>
<path fill-rule="evenodd" clip-rule="evenodd" d="M178.146 206.184C178.75 206.233 179.353 206.282 179.955 206.331C179.352 206.282 178.75 206.233 178.146 206.184Z" fill="white"/>
<path fill-rule="evenodd" clip-rule="evenodd" d="M177.002 229.074C177.011 228.471 177.021 227.869 177.03 227.267C177.021 227.871 177.011 228.473 177.002 229.074Z" fill="white"/>
<path fill-rule="evenodd" clip-rule="evenodd" d="M228.787 204.99C229.39 204.931 229.993 204.872 230.596 204.813C229.993 204.872 229.39 204.931 228.787 204.99Z" fill="white"/>
<path fill-rule="evenodd" clip-rule="evenodd" d="M270.105 194.284C270.141 193.681 270.177 193.078 270.212 192.477C270.177 193.08 270.141 193.682 270.105 194.284Z" fill="white"/>
<path fill-rule="evenodd" clip-rule="evenodd" d="M278.071 110.993C278.674 110.946 279.277 110.899 279.88 110.852C279.277 110.899 278.674 110.946 278.071 110.993Z" fill="white"/>
<path fill-rule="evenodd" clip-rule="evenodd" d="M216.579 189.998C216.126 189.994 215.672 189.989 215.223 189.985C215.678 189.989 216.129 189.994 216.579 189.998Z" fill="white"/>
<path fill-rule="evenodd" clip-rule="evenodd" d="M177.049 262.961C177.027 262.509 177.004 262.056 176.983 261.606C177.004 262.058 177.027 262.51 177.049 262.961Z" fill="white"/>
<path fill-rule="evenodd" clip-rule="evenodd" d="M227.744 239.918C228.732 242.367 228.177 240.633 228.202 241.198C227.36 241.311 227.207 240.884 227.744 239.918Z" fill="white"/>
<path fill-rule="evenodd" clip-rule="evenodd" d="M186.285 187.757C185.832 187.741 185.378 187.725 184.929 187.708C185.385 187.724 185.834 187.741 186.285 187.757Z" fill="white"/>
<path fill-rule="evenodd" clip-rule="evenodd" d="M278.707 141.872C278.735 141.27 278.764 140.667 278.792 140.065C278.764 140.668 278.735 141.27 278.707 141.872Z" fill="white"/>
<path fill-rule="evenodd" clip-rule="evenodd" d="M177.018 258.443C177.017 257.84 177.015 257.238 177.014 256.635C177.015 257.24 177.017 257.841 177.018 258.443Z" fill="white"/>
<path fill-rule="evenodd" clip-rule="evenodd" d="M176.969 244.888C177 244.436 177.032 243.984 177.063 243.533C177.032 243.985 177 244.437 176.969 244.888Z" fill="white"/>
<path fill-rule="evenodd" clip-rule="evenodd" d="M271 185.699C271.042 185.247 271.084 184.795 271.126 184.344C271.084 184.796 271.042 185.248 271 185.699Z" fill="white"/>
<path fill-rule="evenodd" clip-rule="evenodd" d="M171.078 246.244C171.118 246.696 171.159 247.149 171.199 247.599C171.158 247.147 171.118 246.695 171.078 246.244Z" fill="white"/>
<path fill-rule="evenodd" clip-rule="evenodd" d="M170.167 242.629C170.212 243.081 170.256 243.534 170.301 243.985C170.256 243.531 170.212 243.08 170.167 242.629Z" fill="white"/>
<path fill-rule="evenodd" clip-rule="evenodd" d="M260.613 180.729C260.647 180.277 260.68 179.825 260.714 179.374C260.68 179.826 260.646 180.278 260.613 180.729Z" fill="white"/>
<path fill-rule="evenodd" clip-rule="evenodd" d="M29.8418 242.022C30.4442 241.975 31.0473 241.927 31.6504 241.88C31.046 241.928 30.4436 241.975 29.8418 242.022Z" fill="white"/>
<path fill-rule="evenodd" clip-rule="evenodd" d="M256.62 253.021C256.603 253.474 256.585 253.927 256.568 254.376C256.586 253.922 256.603 253.472 256.62 253.021Z" fill="white"/>
<path fill-rule="evenodd" clip-rule="evenodd" d="M263.778 254.376C263.812 253.924 263.845 253.472 263.879 253.021C263.845 253.474 263.812 253.925 263.778 254.376Z" fill="white"/>
<path fill-rule="evenodd" clip-rule="evenodd" d="M261.044 178.922C261.092 178.47 261.14 178.018 261.187 177.566C261.14 178.019 261.092 178.471 261.044 178.922Z" fill="white"/>
<path fill-rule="evenodd" clip-rule="evenodd" d="M33.459 241.588C34.0621 241.529 34.6651 241.47 35.2676 241.411C34.6651 241.47 34.0614 241.529 33.459 241.588Z" fill="white"/>
<path fill-rule="evenodd" clip-rule="evenodd" d="M225.17 189.535C224.867 189.538 224.564 189.542 224.266 189.545C224.57 189.542 224.87 189.538 225.17 189.535Z" fill="white"/>
<path fill-rule="evenodd" clip-rule="evenodd" d="M177.018 240.822C177.017 240.369 177.015 239.917 177.014 239.466C177.015 239.92 177.017 240.37 177.018 240.822Z" fill="white"/>
<path fill-rule="evenodd" clip-rule="evenodd" d="M264.768 239.918C264.608 239.451 264.529 238.991 264.839 238.563C264.815 239.015 264.792 239.467 264.768 239.918Z" fill="white"/>
<path fill-rule="evenodd" clip-rule="evenodd" d="M257.066 231.333C257.053 231.786 257.039 232.239 257.027 232.689C257.04 232.236 257.053 231.785 257.066 231.333Z" fill="white"/>
<path fill-rule="evenodd" clip-rule="evenodd" d="M257.456 276.064C257.484 276.516 257.513 276.969 257.541 277.419C257.513 276.967 257.484 276.515 257.456 276.064Z" fill="white"/>
<path fill-rule="evenodd" clip-rule="evenodd" d="M290.731 111.73C291.184 111.794 291.636 111.859 292.088 111.923C291.635 111.858 291.184 111.794 290.731 111.73Z" fill="white"/>
<path fill-rule="evenodd" clip-rule="evenodd" d="M288.923 111.772C289.529 111.808 290.196 111.517 290.731 111.944L288.923 111.772Z" fill="white"/>
<path fill-rule="evenodd" clip-rule="evenodd" d="M211.605 207.165C212.208 207.163 212.812 207.159 213.414 207.156C212.811 207.159 212.208 207.163 211.605 207.165Z" fill="white"/>
<path fill-rule="evenodd" clip-rule="evenodd" d="M225.17 111.296L226.979 111.453C226.375 111.4 225.773 111.348 225.17 111.296Z" fill="white"/>
<path fill-rule="evenodd" clip-rule="evenodd" d="M195.328 207.043C195.932 207.046 196.534 207.048 197.137 207.051C196.531 207.342 195.929 207.371 195.328 207.043Z" fill="white"/>
<path fill-rule="evenodd" clip-rule="evenodd" d="M178.876 282.841C178.842 282.388 178.808 281.936 178.773 281.486C178.808 281.939 178.842 282.39 178.876 282.841Z" fill="white"/>
<path fill-rule="evenodd" clip-rule="evenodd" d="M244.828 112.052C244.835 111.6 244.841 111.148 244.848 110.697C244.841 111.15 244.835 111.601 244.828 112.052Z" fill="white"/>
<path fill-rule="evenodd" clip-rule="evenodd" d="M206.632 207.234C207.235 207.186 207.838 207.137 208.44 207.088C207.837 207.137 207.235 207.186 206.632 207.234Z" fill="white"/>
<path fill-rule="evenodd" clip-rule="evenodd" d="M257.936 286.908C257.945 287.36 257.956 287.812 257.966 288.263C257.956 287.81 257.945 287.359 257.936 286.908Z" fill="white"/>
<path fill-rule="evenodd" clip-rule="evenodd" d="M259.533 100.617C260.136 100.559 260.739 100.502 261.342 100.445C260.739 100.502 260.136 100.559 259.533 100.617Z" fill="white"/>
<path fill-rule="evenodd" clip-rule="evenodd" d="M267.384 215.971C267.425 215.519 267.467 215.067 267.508 214.616C267.467 215.069 267.425 215.52 267.384 215.971Z" fill="white"/>
<path fill-rule="evenodd" clip-rule="evenodd" d="M288.193 95.3347C288.228 94.8822 288.262 94.4302 288.296 93.9792C288.262 94.4318 288.227 94.8832 288.193 95.3347Z" fill="white"/>
<path fill-rule="evenodd" clip-rule="evenodd" d="M245.277 56.478C245.286 56.9302 245.294 57.3829 245.304 57.8335C245.295 57.3802 245.286 56.9291 245.277 56.478Z" fill="white"/>
<path fill-rule="evenodd" clip-rule="evenodd" d="M229.239 48.0439C229.842 48.0941 230.446 48.1447 231.048 48.1944C230.445 48.1442 229.842 48.0941 229.239 48.0439Z" fill="white"/>
<path fill-rule="evenodd" clip-rule="evenodd" d="M138.81 304.843C139.413 304.784 140.015 304.725 140.618 304.666C140.015 304.725 139.413 304.784 138.81 304.843Z" fill="white"/>
<path fill-rule="evenodd" clip-rule="evenodd" d="M230.144 43.6015C229.841 43.601 229.538 43.6006 229.239 43.6006C229.543 43.6015 229.844 43.6015 230.144 43.6015Z" fill="white"/>
<path fill-rule="evenodd" clip-rule="evenodd" d="M118.915 310.728C119.519 310.417 120.121 310.505 120.724 310.73C120.121 310.729 119.517 310.729 118.915 310.728Z" fill="white"/>
<path fill-rule="evenodd" clip-rule="evenodd" d="M353.58 284.504C354.635 284.449 355.69 284.396 356.745 284.342C355.69 284.396 354.635 284.45 353.58 284.504Z" fill="white"/>
<path fill-rule="evenodd" clip-rule="evenodd" d="M353.58 276.721C352.975 276.734 352.371 276.748 351.771 276.762C352.377 276.749 352.979 276.734 353.58 276.721Z" fill="white"/>
<path fill-rule="evenodd" clip-rule="evenodd" d="M344.537 267.76C345.291 267.702 346.044 267.645 346.798 267.588C346.095 268.029 345.291 267.702 344.537 267.76Z" fill="white"/>
<path fill-rule="evenodd" clip-rule="evenodd" d="M335.946 268.691C336.7 268.636 337.453 268.582 338.207 268.527C337.454 268.582 336.7 268.636 335.946 268.691Z" fill="white"/>
<path fill-rule="evenodd" clip-rule="evenodd" d="M323.286 276.812C323.889 276.765 324.492 276.718 325.095 276.671C324.492 276.718 323.889 276.765 323.286 276.812Z" fill="white"/>
<path fill-rule="evenodd" clip-rule="evenodd" d="M326.451 276.813C327.054 276.766 327.657 276.717 328.26 276.67C327.657 276.717 327.054 276.765 326.451 276.813Z" fill="white"/>
<path fill-rule="evenodd" clip-rule="evenodd" d="M328.712 276.37C329.315 276.316 329.917 276.263 330.521 276.21C329.918 276.263 329.315 276.316 328.712 276.37Z" fill="white"/>
<path fill-rule="evenodd" clip-rule="evenodd" d="M331.877 260.924C331.423 260.927 330.97 260.93 330.521 260.932C330.976 260.928 331.426 260.926 331.877 260.924Z" fill="white"/>
<path fill-rule="evenodd" clip-rule="evenodd" d="M343.181 285.815C343.784 285.765 344.386 285.713 344.989 285.663C344.427 286.057 343.791 285.83 343.181 285.815Z" fill="white"/>
<path fill-rule="evenodd" clip-rule="evenodd" d="M325.999 249.718C326.602 249.661 327.205 249.603 327.808 249.546C327.205 249.603 326.602 249.661 325.999 249.718Z" fill="white"/>
<path fill-rule="evenodd" clip-rule="evenodd" d="M323.738 242.404C323.284 242.403 322.831 242.403 322.382 242.402C322.838 242.403 323.288 242.403 323.738 242.404Z" fill="white"/>
<path fill-rule="evenodd" clip-rule="evenodd" d="M319.217 243.305C318.914 243.306 318.612 243.308 318.312 243.309C318.617 243.307 318.917 243.306 319.217 243.305Z" fill="white"/>
<path fill-rule="evenodd" clip-rule="evenodd" d="M308.365 244.563C308.213 244.935 307.415 244.887 307.463 244.506C307.764 244.525 308.064 244.545 308.365 244.563Z" fill="white"/>
<path fill-rule="evenodd" clip-rule="evenodd" d="M287.313 246.244C287.331 246.695 287.35 247.148 287.368 247.599C287.349 247.146 287.331 246.694 287.313 246.244Z" fill="white"/>
<path fill-rule="evenodd" clip-rule="evenodd" d="M349.059 248.639C349.511 248.631 349.963 248.624 350.415 248.616C349.968 248.935 349.515 248.89 349.059 248.639Z" fill="white"/>
<path fill-rule="evenodd" clip-rule="evenodd" d="M331.877 241.945C331.574 241.949 331.272 241.954 330.973 241.958C331.277 241.953 331.577 241.949 331.877 241.945Z" fill="white"/>
<path fill-rule="evenodd" clip-rule="evenodd" d="M320.121 270.5C320.724 270.444 321.327 270.388 321.93 270.332C321.327 270.388 320.724 270.444 320.121 270.5Z" fill="white"/>
<path fill-rule="evenodd" clip-rule="evenodd" d="M312.887 271.399L314.695 271.241L312.887 271.399Z" fill="white"/>
<path fill-rule="evenodd" clip-rule="evenodd" d="M348.154 284.959C348.757 284.903 349.36 284.846 349.963 284.79C349.36 284.846 348.757 284.903 348.154 284.959Z" fill="white"/>
<path fill-rule="evenodd" clip-rule="evenodd" d="M326.451 287.68C327.055 287.459 327.659 287.384 328.26 287.685C327.656 287.683 327.054 287.681 326.451 287.68Z" fill="white"/>
<path fill-rule="evenodd" clip-rule="evenodd" d="M325.493 225.4L324.643 225.106C325.698 225.093 326.753 225.08 327.808 225.067C327.81 225.068 325.614 225.409 325.493 225.4Z" fill="white"/>
<path fill-rule="evenodd" clip-rule="evenodd" d="M317.408 217.553C316.653 217.553 315.897 217.552 315.147 217.552C315.904 217.553 316.656 217.553 317.408 217.553Z" fill="white"/>
<path fill-rule="evenodd" clip-rule="evenodd" d="M288.923 234.825C289.675 234.524 290.429 234.582 291.184 234.816C290.43 234.819 289.677 234.822 288.923 234.825Z" fill="white"/>
<path fill-rule="evenodd" clip-rule="evenodd" d="M334.59 227.485C334.136 227.49 333.682 227.495 333.233 227.501C333.689 227.495 334.139 227.49 334.59 227.485Z" fill="white"/>
<path fill-rule="evenodd" clip-rule="evenodd" d="M325.095 221.545C325.849 221.594 326.603 221.644 327.355 221.693C326.602 221.643 325.848 221.594 325.095 221.545Z" fill="white"/>
<path fill-rule="evenodd" clip-rule="evenodd" d="M315.6 226.217C316.353 226.164 317.107 226.111 317.86 226.057C317.107 226.111 316.353 226.164 315.6 226.217Z" fill="white"/>
<path fill-rule="evenodd" clip-rule="evenodd" d="M321.478 225.31C322.08 225.259 322.683 225.208 323.286 225.157C322.683 225.208 322.08 225.259 321.478 225.31Z" fill="white"/>
<path fill-rule="evenodd" clip-rule="evenodd" d="M316.504 221.093C317.107 221.143 317.71 221.192 318.312 221.241C317.709 221.192 317.107 221.143 316.504 221.093Z" fill="white"/>
<path fill-rule="evenodd" clip-rule="evenodd" d="M307.913 229.762C307.61 229.755 307.308 229.749 307.009 229.743C307.313 229.749 307.613 229.755 307.913 229.762Z" fill="white"/>
<path fill-rule="evenodd" clip-rule="evenodd" d="M317.408 225.262C317.105 225.243 316.803 225.225 316.504 225.206C316.808 225.224 317.108 225.243 317.408 225.262Z" fill="white"/>
<path fill-rule="evenodd" clip-rule="evenodd" d="M311.53 225.246C311.227 225.237 310.924 225.229 310.626 225.221C310.93 225.23 311.23 225.238 311.53 225.246Z" fill="white"/>
<path fill-rule="evenodd" clip-rule="evenodd" d="M327.808 224.826C327.808 224.943 329.169 224.349 329.164 224.902L327.808 224.826Z" fill="white"/>
<path fill-rule="evenodd" clip-rule="evenodd" d="M322.834 217.552C322.531 217.552 322.229 217.553 321.93 217.553C322.234 217.553 322.534 217.552 322.834 217.552Z" fill="white"/>
<path fill-rule="evenodd" clip-rule="evenodd" d="M162.321 196.126C162.811 194.129 162.678 192.567 164.421 193.843C165.378 194.543 166.956 198.095 166.836 199.299C166.689 200.783 166.012 201.374 164.614 200.902C163.007 200.358 162.369 197.619 162.321 196.126Z" fill="white"/>
<path fill-rule="evenodd" clip-rule="evenodd" d="M250.413 184.004C254.463 184.004 252.696 188.31 249.32 188.406C247.77 188.451 245.538 188.145 246.041 186.07C246.31 184.963 250.244 183.47 250.413 184.004Z" fill="white"/>
<path fill-rule="evenodd" clip-rule="evenodd" d="M206.982 192.477C209.905 193.89 205.792 200.096 203.136 198.559C199.735 196.593 205.78 193.362 206.982 192.477Z" fill="white"/>
<path fill-rule="evenodd" clip-rule="evenodd" d="M199.869 198.35C200.826 199.393 205.138 202.929 202.761 204.35C199.839 206.099 197.614 200.327 199.869 198.35Z" fill="white"/>
<path fill-rule="evenodd" clip-rule="evenodd" d="M150.872 195.639C149.921 193.802 151.23 188.993 154.133 189.872C157.055 190.757 152.48 195.151 150.872 195.639Z" fill="white"/>
<path fill-rule="evenodd" clip-rule="evenodd" d="M215.377 196.698C217.272 195.936 216.911 198.192 217.198 198.92C217.522 199.747 219.192 201.761 218.773 202.641C218.152 203.947 216.666 203.115 215.86 202.267C214.446 200.78 214.546 198.396 215.377 196.698Z" fill="white"/>
<path fill-rule="evenodd" clip-rule="evenodd" d="M186.484 198.79C184.904 198.79 181.132 194.237 183.348 193.474C186.099 192.526 188.399 199.125 186.484 198.79Z" fill="white"/>
<path fill-rule="evenodd" clip-rule="evenodd" d="M241.089 191.573C242.536 191.93 244.452 196.024 242.271 196.499C239.856 197.025 239.425 192.705 241.089 191.573Z" fill="white"/>
<path fill-rule="evenodd" clip-rule="evenodd" d="M232.315 199.254C231.18 197.07 230.9 192.395 233.672 196.147C234.272 196.96 234.892 196.631 234.583 197.972C234.314 199.143 233.238 199.254 232.315 199.254Z" fill="white"/>
<path fill-rule="evenodd" clip-rule="evenodd" d="M172.533 187.958C173.69 189.698 173.348 195.154 170.931 191.928C169.903 190.556 170.611 188.024 172.533 187.958Z" fill="white"/>
<path fill-rule="evenodd" clip-rule="evenodd" d="M230.681 23.991C232.925 23.412 233.463 28.6996 232.154 29.2825C230.322 30.0982 230.552 24.8755 230.681 23.991Z" fill="white"/>
<path fill-rule="evenodd" clip-rule="evenodd" d="M372.641 292.623C370.558 292.501 367.64 291.934 370.795 290.456C372.797 289.52 375.774 289.455 377.887 289.839C379.344 290.104 381.531 291.311 379.307 292.875C378.006 293.79 374.223 292.668 372.641 292.623Z" fill="white"/>
<path fill-rule="evenodd" clip-rule="evenodd" d="M370.306 296.396C369.704 296.328 369.102 296.26 368.501 296.193C368.984 295.317 370.387 295.133 370.306 296.396Z" fill="white"/>
<path fill-rule="evenodd" clip-rule="evenodd" d="M373.022 292.536C373.627 292.549 374.231 292.563 374.831 292.575C374.225 292.562 373.623 292.549 373.022 292.536Z" fill="white"/>
</g>
<defs>
<clipPath id="clip0">
<rect width="463" height="347" fill="white"/>
</clipPath>
</defs>
</svg>
