<svg width="34" height="20" viewBox="0 0 34 20" fill="none" xmlns="http://www.w3.org/2000/svg">
<path d="M33.2251 1.35625C33.4587 0.575 33.2251 0 32.1016 0H28.384C27.4372 0 27.0017 0.49375 26.7682 1.04375C26.7682 1.04375 24.8747 5.6125 22.1985 8.575C21.3338 9.43125 20.9361 9.70625 20.4627 9.70625C20.2292 9.70625 19.8694 9.43125 19.8694 8.65V1.35625C19.8694 0.41875 19.6043 0 18.8217 0H12.977C12.3837 0 12.0302 0.4375 12.0302 0.84375C12.0302 1.73125 13.3683 1.9375 13.5072 4.4375V9.8625C13.5072 11.05 13.2926 11.2687 12.8192 11.2687C11.5568 11.2687 8.48932 6.68125 6.67153 1.43125C6.30545 0.4125 5.94568 0 4.9926 0H1.27498C0.2146 0 0 0.49375 0 1.04375C0 2.01875 1.26235 6.8625 5.87625 13.2625C8.95008 17.6313 13.2799 20 17.2185 20C19.5854 20 19.8757 19.475 19.8757 18.5688C19.8757 14.3938 19.6611 14 20.8477 14C21.3969 14 22.3436 14.275 24.5528 16.3813C27.0775 18.8813 27.494 20 28.9079 20H32.6255C33.6859 20 34.2224 19.475 33.9131 18.4375C33.2062 16.2562 28.4282 11.7688 28.2136 11.4688C27.6645 10.7688 27.8222 10.4563 28.2136 9.83125C28.2199 9.825 32.7581 3.5 33.2251 1.35625V1.35625Z" fill="white"/>
</svg>
